<?xml version="1.0" standalone="no"?>
<!DOCTYPE svg PUBLIC "-//W3C//DTD SVG 20010904//EN"
 "http://www.w3.org/TR/2001/REC-SVG-20010904/DTD/svg10.dtd">
<svg version="1.0" xmlns="http://www.w3.org/2000/svg"
 width="600.000000pt" height="600.000000pt" viewBox="0 0 600.000000 600.000000"
 preserveAspectRatio="xMidYMid meet">
<metadata>
Created by potrace 1.14, written by Peter Selinger 2001-2017
</metadata>
<g transform="translate(0.000000,600.000000) scale(0.100000,-0.100000)"
fill="#000000" stroke="none">
<path d="M2220 5380 c-124 -4 -175 -10 -204 -23 -21 -9 -49 -17 -62 -17 -12 0
-25 -4 -29 -9 -3 -5 -60 -42 -128 -82 -142 -85 -165 -101 -220 -153 -23 -21
-61 -47 -84 -57 -24 -10 -43 -22 -43 -27 0 -5 -31 -40 -69 -79 -38 -38 -72
-80 -76 -91 -3 -12 -11 -22 -16 -22 -6 0 -7 -4 -4 -10 3 -5 2 -10 -4 -10 -5 0
-13 -9 -16 -20 -3 -11 -13 -20 -21 -20 -8 0 -13 -3 -13 -7 4 -25 -3 -35 -21
-30 -11 3 -18 1 -15 -3 3 -5 1 -11 -3 -14 -5 -3 -8 -15 -7 -28 1 -13 -7 -31
-18 -40 -11 -10 -17 -18 -13 -18 4 0 -2 -12 -13 -26 -12 -15 -21 -33 -21 -40
0 -8 -4 -14 -10 -14 -5 0 -10 -9 -10 -20 0 -11 -4 -20 -9 -20 -10 0 -27 -39
-23 -52 1 -5 -3 -8 -8 -8 -6 0 -10 -7 -10 -15 0 -8 -8 -23 -18 -33 -10 -10
-17 -23 -15 -29 2 -6 -3 -18 -12 -26 -9 -9 -16 -20 -15 -24 0 -4 -4 -8 -10 -8
-12 0 -15 -14 -4 -23 4 -4 4 -1 -1 7 -6 10 -4 12 4 7 15 -10 7 -19 -19 -21
-16 -1 -19 3 -14 18 4 13 2 17 -5 13 -6 -4 -11 -14 -11 -22 0 -8 -4 -13 -10
-9 -5 3 -7 13 -4 23 5 14 4 14 -4 2 -6 -8 -8 -18 -5 -24 4 -6 -1 -6 -13 -2
-10 5 -28 9 -39 10 -11 0 -23 6 -27 11 -5 6 -8 5 -8 -3 0 -7 -4 -11 -9 -7 -5
3 -12 1 -16 -5 -4 -6 -11 -7 -17 -4 -7 5 -9 1 -5 -9 3 -9 1 -19 -5 -23 -7 -4
-8 -3 -4 4 4 7 2 12 -3 12 -6 0 -10 5 -9 11 2 6 -4 14 -12 16 -9 3 -11 1 -5
-4 6 -4 11 -17 13 -28 2 -18 0 -17 -18 5 l-20 25 9 -26 c9 -24 8 -26 -11 -22
-15 5 -17 8 -6 14 9 6 9 9 1 9 -6 0 -20 -13 -29 -30 -13 -21 -20 -26 -26 -17
-6 9 -10 9 -17 -1 -4 -8 -11 -13 -15 -13 -20 3 -26 0 -21 -9 4 -6 -1 -7 -11
-3 -13 5 -9 10 20 25 20 10 42 16 49 12 9 -5 9 -4 1 5 -9 10 -18 9 -43 -4 -17
-9 -36 -13 -42 -10 -5 4 -8 1 -7 -7 2 -7 -4 -12 -14 -10 -9 1 -19 -2 -23 -8
-3 -5 0 -7 8 -4 8 3 18 0 22 -6 3 -6 3 -10 -2 -9 -25 4 -45 -2 -40 -14 4 -10
-6 -13 -39 -12 -24 1 -41 -2 -38 -7 3 -4 9 -6 14 -3 5 3 12 0 16 -6 5 -8 3 -9
-6 -4 -10 6 -12 4 -7 -8 3 -9 3 -16 -1 -15 -16 3 -41 -15 -35 -25 4 -6 1 -7
-7 -2 -10 6 -7 12 9 25 20 15 21 18 7 30 -14 11 -16 11 -11 -2 3 -8 -1 -21
-10 -28 -8 -7 -15 -22 -15 -34 0 -17 -2 -18 -9 -6 -6 8 -7 18 -4 24 3 5 1 6
-6 2 -6 -4 -8 -12 -5 -18 4 -6 -2 -8 -17 -4 -13 3 -19 3 -12 0 9 -4 9 -13 2
-32 -6 -15 -11 -29 -12 -32 -1 -3 -5 -4 -9 -2 -8 2 -12 -14 -9 -31 1 -4 -13
-1 -31 8 -25 12 -29 12 -15 2 20 -16 33 -62 15 -51 -8 5 -9 1 -4 -12 4 -10 4
-15 0 -12 -3 4 -16 -2 -27 -13 -19 -17 -20 -21 -7 -29 12 -8 10 -10 -7 -10
-13 0 -23 -5 -23 -11 0 -5 4 -8 9 -4 5 3 13 1 16 -5 4 -6 1 -9 -6 -8 -6 2 -14
-3 -17 -11 -3 -10 0 -11 9 -5 12 6 12 5 1 -8 -9 -11 -10 -18 -2 -23 16 -10 2
-24 -20 -20 -27 5 -25 -3 3 -16 21 -9 21 -9 -3 -6 -19 3 -26 -1 -26 -14 0 -14
3 -15 13 -7 8 6 16 8 20 4 3 -3 1 -6 -6 -6 -16 0 -10 -32 9 -48 13 -11 13 -11
-1 -7 -10 4 -16 0 -16 -10 0 -8 5 -15 11 -15 6 0 5 -4 -2 -9 -8 -4 -14 -12
-14 -16 0 -4 6 -12 14 -16 9 -6 9 -9 1 -9 -7 0 -17 8 -22 18 -17 28 -12 4 5
-30 14 -27 14 -30 1 -25 -9 3 -21 0 -27 -8 -9 -11 -7 -16 8 -24 14 -7 19 -19
17 -36 -1 -16 4 -29 15 -35 21 -11 21 -47 0 -61 -11 -8 -9 -9 10 -3 14 3 22 3
17 -1 -4 -5 0 -19 9 -33 9 -13 11 -21 5 -18 -6 4 -11 2 -11 -3 0 -6 5 -11 10
-11 6 0 8 -13 5 -32 -4 -18 -3 -30 0 -27 3 4 8 17 10 29 6 29 14 38 13 14 -1
-11 1 -31 5 -46 5 -20 12 -26 24 -21 10 4 14 2 9 -5 -3 -6 3 -17 14 -25 11 -7
17 -17 12 -22 -4 -4 1 -5 10 -2 12 4 15 2 11 -9 -3 -8 1 -14 8 -14 11 0 11 -3
-1 -10 -9 -6 -10 -10 -3 -10 6 0 15 5 19 11 5 8 10 6 16 -5 5 -9 13 -14 17
-12 4 3 8 -1 8 -9 0 -13 -3 -13 -17 0 -14 13 -17 13 -17 1 0 -8 3 -15 6 -14 3
0 8 -1 11 -2 9 -3 45 -11 57 -12 7 -1 10 -5 7 -10 -3 -5 -10 -5 -16 -2 -6 4
-8 2 -5 -3 4 -6 20 -9 37 -8 16 1 27 -1 25 -5 -8 -13 26 -42 41 -36 16 6 64
-13 64 -26 0 -4 5 -8 11 -8 5 0 7 5 4 10 -4 6 4 6 18 -1 23 -11 25 -17 26 -83
2 -97 3 -106 13 -106 5 0 6 -6 1 -12 -4 -7 -8 -20 -8 -28 0 -8 -7 -14 -15 -12
-11 3 -10 -1 4 -17 10 -11 15 -25 10 -32 -4 -7 -3 -10 3 -6 10 6 29 -38 24
-57 -1 -4 4 -15 11 -24 11 -13 11 -14 -2 -7 -12 7 -12 4 2 -17 12 -18 14 -28
6 -36 -8 -8 -4 -14 14 -21 24 -9 44 -38 33 -49 -3 -3 -5 0 -5 5 0 15 -30 10
-39 -6 -6 -10 -10 -9 -15 4 -3 10 -12 15 -21 11 -8 -3 -15 -1 -15 3 0 5 6 11
13 14 6 3 2 4 -9 4 -14 -1 -20 -6 -17 -14 4 -9 0 -11 -11 -7 -9 3 -13 11 -10
18 3 6 -3 1 -15 -12 -12 -14 -22 -18 -26 -12 -4 6 -24 9 -46 6 -21 -2 -37 -1
-34 4 8 12 -6 41 -16 34 -5 -3 -9 -10 -9 -15 0 -6 5 -7 12 -3 7 4 8 3 4 -4 -4
-6 -13 -9 -21 -6 -8 4 -12 10 -9 15 5 9 -9 13 -35 10 -8 -2 -10 2 -5 10 4 8 3
10 -5 5 -14 -9 -3 -29 13 -23 7 3 13 -1 13 -8 0 -11 -5 -12 -21 -2 -12 6 -25
10 -29 9 -5 -1 -6 2 -2 8 3 5 2 10 -4 10 -5 0 -13 -5 -16 -10 -5 -8 -11 -7
-21 1 -11 9 -14 8 -14 -2 -1 -10 -4 -8 -11 4 -5 9 -16 17 -24 17 -8 0 -13 6
-11 13 1 6 1 8 -2 4 -2 -4 -11 -2 -20 5 -13 11 -14 11 -7 -1 6 -11 4 -13 -8
-8 -10 4 -14 2 -11 -7 2 -7 -5 -23 -17 -37 -20 -23 -21 -23 -15 -2 4 12 3 24
-1 26 -5 3 -10 -6 -11 -21 -3 -35 -20 -52 -32 -32 -7 11 -10 11 -10 2 0 -7 -4
-11 -9 -8 -4 3 -7 -10 -6 -29 1 -19 -2 -35 -7 -35 -4 0 -8 6 -9 13 0 6 -4 2
-10 -11 -5 -13 -14 -20 -20 -16 -8 4 -8 0 0 -15 10 -17 8 -26 -6 -46 -10 -13
-22 -25 -27 -25 -5 0 -3 6 3 14 9 11 9 16 0 22 -7 4 -9 3 -5 -4 3 -6 1 -14 -5
-17 -5 -4 -8 -13 -5 -20 2 -7 2 -16 -2 -19 -3 -4 -7 -12 -8 -19 -1 -7 -3 -19
-5 -27 -3 -9 2 -14 11 -12 8 2 12 1 9 -3 -4 -3 3 -16 15 -29 16 -17 25 -20 35
-12 11 8 13 8 8 -1 -4 -6 -1 -18 7 -26 8 -8 12 -18 8 -22 -4 -4 3 -3 15 4 15
7 24 8 28 1 4 -6 11 -8 16 -5 5 4 9 0 10 -7 0 -7 5 -3 11 9 6 13 15 23 20 23
5 0 4 -8 -1 -18 -9 -16 -6 -19 14 -18 13 1 28 6 32 10 4 5 2 6 -4 2 -7 -4 -13
-2 -13 4 0 7 6 10 13 7 6 -2 11 -12 9 -21 -2 -9 1 -16 5 -15 4 1 10 0 13 -1 3
-1 15 -3 27 -4 15 -2 20 1 14 8 -6 7 -1 11 15 12 13 1 24 -3 24 -8 0 -6 9 -8
20 -5 11 3 29 -3 41 -14 19 -16 39 -18 39 -3 0 3 -4 3 -9 -1 -5 -3 -12 -1 -15
4 -4 5 0 8 6 6 38 -9 58 -18 58 -27 0 -5 -5 -6 -12 -2 -7 5 -8 3 -3 -5 5 -9
10 -10 18 -2 7 7 16 7 29 0 10 -5 18 -6 17 -2 -4 22 3 25 17 7 12 -15 14 -15
11 -2 -6 17 16 19 30 3 5 -4 1 -5 -7 0 -8 5 -12 4 -7 0 4 -5 28 -8 53 -6 35 2
44 0 39 -10 -6 -8 -4 -10 4 -5 7 5 10 14 7 22 -3 8 0 11 9 7 11 -4 12 -10 4
-24 -15 -30 -2 -22 16 9 9 15 14 19 11 9 -3 -10 -2 -15 3 -12 5 3 12 1 16 -5
3 -5 12 -10 18 -10 7 0 4 5 -6 11 -18 11 -14 29 6 29 8 0 8 -3 -1 -9 -11 -6
-9 -9 6 -13 16 -4 19 -2 16 11 -3 9 2 5 11 -9 9 -14 14 -17 11 -8 -3 10 0 20
6 24 7 4 8 3 4 -4 -7 -12 4 -16 37 -12 10 1 24 -3 31 -9 9 -8 13 -7 13 4 0 8
-5 11 -10 8 -6 -3 -7 -1 -3 5 4 6 14 8 23 5 9 -4 14 -2 10 3 -3 5 3 10 13 10
10 0 16 -6 13 -13 -4 -9 0 -11 11 -7 9 3 13 11 9 18 -4 6 1 5 10 -3 9 -7 17
-10 17 -5 0 5 5 2 10 -6 8 -12 10 -12 10 -1 0 11 3 11 17 0 16 -13 17 -12 4 3
-7 10 -18 15 -25 11 -6 -4 -4 2 4 13 22 29 24 30 17 12 -3 -10 0 -19 9 -22 10
-4 12 -2 8 5 -5 8 3 10 25 7 18 -3 36 1 42 8 6 7 18 10 27 7 14 -4 15 -3 2 6
-18 12 -7 26 12 15 20 -13 38 -13 35 -1 -1 7 3 11 10 10 6 -1 14 4 17 13 6 16
-6 12 -34 -12 -13 -11 -16 -10 -16 6 0 10 3 17 7 14 11 -6 40 7 34 16 -2 4 11
6 30 4 19 -1 38 2 41 8 4 6 3 8 -3 5 -5 -3 -10 0 -10 6 0 12 22 18 67 19 22 1
41 19 33 31 -3 6 -1 7 5 3 7 -4 12 -2 12 4 0 7 7 10 15 6 9 -3 15 0 15 10 0 8
5 12 10 9 6 -3 10 -2 10 3 0 4 16 14 35 22 19 7 32 17 29 22 -3 4 3 5 13 1 10
-3 15 -3 11 2 -4 4 0 14 8 23 14 13 17 13 32 -4 16 -17 16 -17 0 -5 -10 8 -18
10 -18 6 0 -5 8 -17 18 -28 9 -11 12 -17 5 -14 -8 5 -11 0 -10 -13 1 -11 6
-20 12 -20 5 0 3 -5 -5 -10 -13 -9 -13 -10 0 -10 13 0 13 -1 0 -10 -9 -6 -17
-5 -22 3 -6 9 -8 9 -8 0 0 -6 5 -15 10 -18 6 -4 8 -11 4 -16 -3 -5 -10 -6 -16
-3 -7 4 -8 2 -4 -5 4 -6 11 -9 16 -6 5 3 11 1 15 -4 3 -6 13 -7 23 -4 14 5 15
3 4 -8 -6 -7 -12 -18 -12 -23 0 -6 5 -4 10 4 8 13 10 12 10 -3 0 -10 5 -15 10
-12 5 3 11 0 11 -7 3 -33 4 -38 12 -38 4 0 12 0 18 0 5 0 7 5 3 11 -4 8 -9 7
-15 -2 -5 -8 -9 -9 -9 -3 0 6 7 17 16 24 12 11 15 11 12 -1 -2 -8 3 -13 10
-11 10 2 10 -2 2 -19 -7 -11 -9 -23 -6 -27 3 -3 6 -1 6 5 0 14 45 22 62 12 7
-4 9 -11 5 -16 -5 -4 -12 -1 -17 7 -6 8 -10 11 -10 6 0 -5 11 -19 24 -31 l25
-23 18 22 c9 11 11 15 3 8 -20 -17 -26 -15 -27 10 -2 17 0 19 7 9 7 -13 11
-13 26 0 13 10 16 10 10 1 -10 -16 25 -13 36 3 5 7 8 6 8 -1 0 -5 -7 -19 -16
-30 -15 -19 -16 -19 -9 1 5 15 3 17 -6 8 -6 -6 -8 -16 -4 -23 9 -15 57 28 48
44 -3 6 -2 7 3 3 5 -5 9 -14 9 -20 0 -5 6 -12 13 -15 7 -2 10 2 6 12 -5 12 -2
15 10 10 10 -4 16 -1 16 7 0 12 2 12 9 1 4 -8 12 -14 16 -14 4 0 12 6 16 14 7
10 9 10 9 0 0 -7 4 -11 9 -7 5 3 13 0 17 -6 5 -8 3 -9 -7 -4 -11 7 -12 6 -2
-7 7 -8 11 -18 8 -21 -3 -4 -2 -4 3 -1 4 3 7 11 7 17 0 7 8 11 17 11 10 -1 14
4 11 12 -4 11 -9 12 -19 3 -10 -8 -14 -8 -14 0 0 12 11 14 48 11 12 -1 22 4
22 10 0 6 5 8 12 4 7 -4 8 -3 4 5 -6 9 -12 9 -24 -1 -15 -11 -15 -11 -5 3 7 9
9 19 5 24 -4 4 2 3 13 -3 18 -9 21 -7 22 9 1 12 -3 17 -9 13 -7 -4 -8 -2 -4 4
4 6 14 8 23 5 12 -5 14 -3 7 8 -12 20 -14 40 -3 33 5 -3 7 -9 4 -14 -3 -4 5
-8 18 -9 46 -1 57 -5 57 -19 0 -11 -3 -12 -14 -3 -10 8 -16 9 -21 1 -4 -6 -1
-9 7 -8 7 2 12 -3 10 -10 -2 -10 2 -10 17 0 11 7 17 17 13 23 -3 5 2 4 11 -4
9 -7 17 -19 17 -25 0 -6 -5 -4 -11 4 -7 10 -9 11 -7 2 2 -8 7 -13 12 -12 5 1
13 -5 18 -14 5 -9 13 -14 18 -11 5 3 11 1 15 -5 3 -5 13 -10 21 -10 10 0 12 5
8 13 -5 8 -2 8 9 -2 13 -11 17 -11 17 -1 0 8 2 11 5 8 3 -3 1 -18 -5 -34 -9
-27 -9 -28 5 -10 8 11 15 23 15 28 0 4 4 8 8 8 5 0 9 -7 9 -15 0 -8 -5 -11
-10 -8 -6 3 -7 1 -3 -5 3 -6 15 -9 26 -7 11 2 24 -4 30 -13 6 -11 10 -12 10
-4 0 7 5 10 12 6 7 -4 8 -3 4 5 -4 6 -12 8 -18 5 -7 -4 -8 -2 -4 4 4 7 -1 9
-15 7 -12 -2 -19 -1 -15 2 10 10 56 11 50 1 -8 -12 10 -10 25 4 8 8 11 8 8 2
-4 -7 1 -18 10 -25 9 -8 14 -9 10 -3 -4 7 0 15 9 18 10 4 13 2 8 -6 -5 -8 -2
-9 12 -3 10 4 27 7 37 7 11 -1 15 4 11 11 -5 9 -3 9 6 0 11 -10 17 -10 29 0
10 8 13 8 8 0 -4 -6 -1 -18 7 -26 8 -8 12 -18 8 -22 -4 -4 -2 -6 3 -5 21 5 29
-1 15 -10 -11 -7 -11 -10 -2 -10 7 0 11 -4 7 -9 -3 -5 0 -13 6 -17 7 -4 9 -3
6 3 -3 5 0 10 8 10 10 0 12 -4 5 -12 -5 -7 -6 -15 -2 -20 4 -4 -4 -2 -18 5
-21 11 -23 11 -14 -1 7 -8 11 -33 10 -57 -1 -28 1 -39 8 -32 5 5 14 10 19 10
5 0 1 -7 -7 -16 -19 -18 -20 -38 -6 -64 8 -16 7 -18 -4 -14 -21 8 -28 -12 -9
-27 14 -12 16 -12 8 0 -5 10 -4 12 3 7 7 -4 12 -11 12 -17 0 -14 -21 -11 -40
6 -14 13 -17 13 -17 1 0 -8 5 -14 11 -13 6 1 10 -12 9 -31 -1 -25 1 -31 10
-24 9 8 12 4 12 -13 0 -15 -4 -20 -10 -15 -6 5 -17 4 -25 -2 -13 -8 -12 -9 2
-5 27 9 31 -23 6 -51 l-23 -26 35 24 35 24 -25 -29 c-20 -22 -21 -27 -7 -22
10 4 16 3 12 -2 -3 -5 -2 -11 2 -14 5 -2 2 -2 -4 -1 -7 2 -13 -1 -13 -6 0 -6
5 -10 11 -10 5 0 7 -6 3 -12 -6 -10 -5 -10 7 -1 12 10 20 9 36 -2 11 -8 23
-12 27 -10 3 3 2 -1 -4 -7 -5 -7 -10 -15 -10 -18 0 -11 34 -8 49 4 12 9 13 8
8 -7 -4 -10 -3 -16 2 -12 5 3 12 -1 15 -7 4 -7 4 -3 2 9 -2 12 2 24 10 27 8 3
11 0 7 -10 -4 -10 0 -12 11 -8 9 3 13 11 9 17 -3 5 -1 7 5 3 5 -3 12 -1 14 6
2 6 12 12 21 14 9 1 15 -2 11 -7 -3 -5 -10 -7 -15 -4 -5 4 -9 1 -9 -4 0 -16
15 -13 30 4 6 8 8 20 4 26 -5 8 -2 10 8 7 8 -4 15 0 15 8 0 7 -4 11 -8 9 -4
-3 -9 2 -13 10 -3 8 -1 17 5 20 5 4 6 11 3 17 -4 7 -2 8 5 4 8 -5 10 0 7 17
-4 25 17 33 41 15 9 -7 14 -5 18 6 17 53 16 52 28 34 10 -15 13 -14 29 10 10
15 18 21 18 13 0 -11 3 -11 15 -1 8 6 19 9 26 5 16 -10 -8 -24 -33 -20 -12 3
-16 0 -12 -7 4 -7 3 -8 -4 -4 -17 10 -15 1 4 -14 12 -11 15 -11 12 0 -2 8 5
14 17 14 11 0 28 13 39 29 10 15 21 26 24 23 3 -3 0 -12 -6 -19 -8 -10 -8 -17
-1 -24 8 -8 7 -17 -3 -32 -8 -12 -17 -19 -19 -16 -3 2 -5 -5 -5 -16 0 -19 1
-19 13 -3 7 10 13 21 13 24 0 4 7 7 16 7 14 0 14 -2 -2 -14 -10 -7 -14 -13
-10 -13 5 0 2 -7 -5 -16 -12 -15 -11 -16 11 -10 14 4 20 4 14 -1 -14 -10 -24
-63 -12 -63 5 0 6 -4 3 -10 -3 -6 1 -7 10 -4 11 5 14 2 9 -10 -4 -9 -1 -16 6
-16 10 0 10 -3 0 -15 -21 -25 -7 -23 20 2 16 16 18 22 7 17 -9 -3 -17 -2 -17
4 0 9 8 9 39 3 2 -1 -4 -13 -14 -27 l-17 -27 25 19 c14 11 22 24 19 29 -4 6
-1 6 9 0 19 -14 38 -12 69 5 14 7 26 13 28 12 1 -1 3 -2 5 -1 20 6 36 5 32 -1
-3 -5 -1 -11 5 -15 6 -4 8 -11 5 -16 -4 -5 -1 -9 5 -9 6 0 9 8 6 18 -3 9 -1
24 5 32 8 12 9 11 4 -6 -3 -14 1 -26 12 -35 9 -8 14 -9 10 -3 -4 8 4 13 24 16
16 3 32 1 35 -3 2 -5 11 -6 19 -2 8 3 15 0 15 -5 0 -6 -9 -9 -20 -7 -12 2 -18
0 -15 -6 4 -5 11 -7 16 -4 5 4 9 0 9 -7 0 -10 2 -10 9 1 7 11 10 11 15 0 3 -8
3 -3 0 11 -3 14 -2 20 3 15 10 -14 46 -14 56 0 5 6 7 4 4 -5 -2 -8 -13 -14
-25 -14 -14 1 -19 -3 -15 -13 5 -12 7 -12 14 -1 5 7 9 9 9 4 0 -5 6 -3 13 3 8
6 17 7 22 3 4 -4 4 4 1 18 -4 14 -4 20 1 14 4 -6 16 -10 26 -8 15 2 22 -7 18
-28 0 -5 4 -8 9 -8 6 0 10 4 10 10 0 5 3 9 8 9 32 -5 51 2 45 18 -4 13 0 11
11 -4 10 -14 23 -20 34 -17 14 5 14 4 2 -4 -10 -8 -19 -7 -30 1 -13 10 -13 10
-3 -4 7 -9 9 -19 5 -24 -4 -4 3 -3 15 4 20 10 21 9 17 -15 -4 -21 -2 -25 11
-21 8 4 15 2 15 -3 0 -6 -7 -10 -15 -10 -16 0 -20 -12 -8 -23 3 -4 13 -1 21 6
11 8 14 9 9 0 -4 -7 0 -17 10 -23 16 -10 16 -10 -2 -6 -11 3 -27 1 -35 -5 -12
-8 -9 -9 9 -4 15 5 21 3 17 -3 -3 -6 -1 -14 5 -18 8 -4 9 -3 5 5 -5 8 2 11 23
9 34 -2 37 -7 19 -27 -10 -11 -10 -13 0 -7 7 4 12 1 13 -8 1 -9 2 -22 3 -28 1
-7 11 -13 24 -12 18 0 28 -9 20 -18 -7 -9 50 -54 65 -52 10 2 26 -5 37 -16 10
-10 21 -16 24 -13 3 4 6 2 6 -4 0 -5 7 -10 15 -11 8 -1 22 -3 30 -4 8 -1 15
-4 15 -8 0 -10 14 -12 184 -16 137 -4 161 -2 177 12 11 10 38 17 72 17 30 1
53 5 50 9 -2 5 3 8 11 8 9 0 16 6 16 13 0 9 2 9 9 -1 6 -10 10 -10 21 2 7 9
16 13 21 10 5 -3 18 0 29 6 12 6 20 7 20 1 0 -11 18 -9 45 6 11 6 38 14 60 18
22 4 48 14 58 23 9 8 17 11 17 6 0 -5 5 -1 11 9 6 9 14 15 20 12 5 -4 9 -1 9
5 0 6 4 9 9 5 5 -3 12 -1 16 5 4 6 11 8 16 5 5 -4 9 1 9 9 0 9 7 16 16 16 8 0
12 5 9 10 -3 6 2 13 12 17 22 8 43 28 43 40 0 13 53 58 63 55 5 -1 6 2 2 7 -3
6 3 19 14 30 11 11 17 22 14 25 -4 3 -2 6 4 6 6 0 23 25 38 56 15 31 36 65 46
75 11 11 17 19 14 19 -3 0 0 10 7 23 7 12 11 25 10 30 -1 4 3 7 9 7 5 0 8 4 4
9 -3 5 -1 12 5 16 6 4 8 11 5 16 -4 5 -1 9 4 9 6 0 11 5 11 11 0 6 6 25 14 42
24 54 29 72 27 85 -1 6 4 12 10 12 7 0 10 3 6 6 -3 3 1 23 8 45 8 21 12 39 9
39 -2 0 2 13 10 29 9 16 12 31 9 35 -4 3 -2 6 4 6 6 0 9 9 6 20 -3 11 -1 20 3
20 5 0 9 19 8 43 0 23 3 47 7 53 5 5 11 35 13 65 10 110 18 149 30 142 8 -5 8
-3 0 8 -6 8 -8 30 -6 49 3 19 5 56 6 83 0 26 4 47 8 47 3 0 4 9 1 20 -3 12 2
29 13 42 11 12 13 18 5 13 -10 -6 -12 -2 -6 14 4 12 2 21 -4 21 -12 0 -12 68
1 76 4 3 5 11 1 17 -4 7 -8 21 -9 32 -1 11 -5 30 -8 43 -2 12 -1 22 3 22 5 0
6 21 3 46 -3 33 -1 49 9 55 8 5 9 9 3 9 -7 0 -14 11 -16 25 -4 17 -1 25 9 25
7 0 16 7 19 15 7 18 30 20 37 3 4 -10 6 -10 6 0 1 6 10 12 22 12 11 0 17 -5
14 -10 -4 -6 -11 -7 -17 -4 -7 4 -8 2 -4 -4 4 -7 2 -12 -5 -12 -7 0 -9 -3 -6
-7 4 -3 16 2 26 11 11 10 27 19 36 20 21 3 35 25 28 43 -6 16 2 17 30 2 22
-12 22 -12 3 10 -15 17 -16 20 -4 16 9 -4 19 -1 24 6 5 8 3 10 -6 4 -10 -6
-12 -4 -6 10 5 15 4 16 -9 5 -13 -11 -14 -10 -9 4 3 9 16 16 28 16 20 1 20 1
-3 14 -17 9 -20 15 -11 21 7 4 16 2 22 -6 7 -10 8 -9 3 6 -4 11 -7 25 -6 30 3
29 9 70 11 70 1 0 3 10 6 23 2 12 0 22 -5 22 -6 0 -8 -9 -6 -20 2 -11 0 -18
-4 -15 -5 2 -7 -9 -6 -25 1 -16 -1 -27 -6 -24 -5 3 -7 10 -4 15 4 5 0 9 -7 9
-9 0 -9 3 2 10 8 5 11 10 6 10 -5 0 -3 7 4 15 10 12 10 15 -1 15 -8 0 -6 6 7
16 10 8 14 13 7 10 -6 -4 -15 -1 -19 5 -4 8 -3 9 5 5 14 -9 29 27 26 69 0 16
4 34 9 38 7 5 5 7 -4 4 -8 -2 -14 -10 -12 -16 1 -7 -2 -10 -7 -7 -6 4 -6 18
-1 36 5 17 5 32 0 35 -5 3 -6 13 -3 22 5 12 3 14 -7 8 -9 -5 -11 -4 -6 4 4 6
11 9 16 6 5 -3 11 -1 15 5 3 5 -2 10 -12 11 -10 0 -13 3 -5 6 19 7 14 23 -5
17 -15 -5 -15 -4 -3 4 12 9 12 14 -4 31 -18 20 -18 20 3 16 11 -2 24 1 27 7 4
6 3 8 -2 5 -6 -3 -16 -2 -24 4 -13 7 -12 9 2 9 9 0 20 5 24 11 4 8 -1 9 -16 4
-19 -6 -22 -4 -17 9 4 10 3 15 -3 11 -13 -8 -13 1 1 28 7 12 8 19 4 15 -5 -4
-14 -3 -22 3 -11 10 -11 15 -1 28 12 14 11 15 -5 2 -10 -8 -30 -15 -45 -17
-15 -1 -21 0 -14 3 6 3 9 10 5 16 -13 21 -14 89 -1 81 7 -5 8 -3 4 5 -5 7 -10
25 -13 42 -3 23 -1 28 11 23 9 -3 16 -1 16 5 0 6 7 11 16 11 19 0 44 24 44 42
0 8 5 19 12 26 9 9 9 12 -1 12 -11 0 -11 3 -1 15 7 8 8 15 3 15 -5 0 -10 11
-11 25 -1 14 -9 36 -17 49 -8 12 -12 26 -8 31 5 4 2 5 -4 1 -12 -6 -18 5 -14
27 0 4 -3 7 -8 7 -13 0 -52 70 -45 81 3 5 -18 32 -46 60 -28 27 -48 54 -44 60
3 5 0 16 -6 24 -10 12 -10 15 1 15 9 1 8 4 -4 11 -9 6 -15 14 -12 20 4 5 1 9
-4 9 -6 0 -11 7 -11 15 0 8 -7 15 -16 15 -8 0 -13 4 -10 9 3 5 -1 12 -10 15
-8 3 -12 11 -9 16 4 6 1 9 -7 8 -7 -2 -12 3 -10 10 1 6 -3 12 -9 12 -6 0 -29
18 -50 40 -22 22 -43 40 -47 40 -8 0 -24 12 -69 50 -7 6 -13 7 -13 3 0 -4 -5
0 -11 10 -5 9 -17 17 -26 17 -8 0 -13 6 -11 13 3 6 -3 21 -13 31 -11 11 -19
15 -19 9 0 -8 -38 -10 -47 -3 -2 2 -6 3 -10 5 -16 4 -49 17 -83 32 -71 32
-175 63 -207 63 -24 0 -41 -8 -58 -26 l-24 -26 -128 40 c-97 31 -141 40 -183
38 -36 -2 -79 5 -126 20 -95 31 -410 109 -539 134 -33 6 -80 15 -105 20 -106
23 -394 68 -571 90 -37 5 -93 14 -125 20 -33 6 -115 13 -184 17 -111 5 -127 8
-142 26 -23 30 -77 47 -106 34 -16 -8 -33 -7 -56 1 -18 7 -43 11 -57 10 -13
-1 -98 -4 -189 -8z m-1407 -1113 c3 -8 -1 -14 -9 -14 -15 0 -18 9 -7 20 9 9
10 9 16 -6z m51 4 c-8 -8 -34 -10 -38 -2 -3 4 6 7 19 7 14 0 22 -2 19 -5z
m-494 -225 c0 -3 -4 -8 -10 -11 -5 -3 -10 -1 -10 4 0 6 5 11 10 11 6 0 10 -2
10 -4z m5328 -222 c-4 -3 -12 5 -18 18 -12 22 -12 22 6 6 10 -10 15 -20 12
-24z m-4890 -29 c0 -14 -4 -28 -9 -30 -4 -3 -11 -26 -15 -50 -4 -32 -11 -45
-23 -46 -10 0 -11 -2 -4 -6 10 -3 10 -10 2 -24 -11 -22 -21 -72 -20 -106 1
-14 -5 -23 -14 -23 -8 0 -15 -5 -15 -11 0 -5 4 -8 8 -5 5 3 9 -1 9 -9 0 -12
-4 -12 -19 2 -11 10 -16 23 -12 32 7 19 7 24 -1 71 -13 75 -13 80 -2 77 7 -1
11 6 11 16 -1 9 2 17 7 17 5 0 9 -5 9 -12 0 -6 3 -8 6 -5 4 4 1 14 -7 23 -12
15 -11 16 11 10 l25 -7 -25 15 c-14 9 -19 15 -12 16 7 0 11 4 8 9 -4 5 5 8 18
7 16 -2 23 1 19 10 -2 7 -12 10 -21 7 -15 -4 -15 -3 -2 6 19 14 43 14 35 1 -3
-5 -2 -10 4 -10 18 0 21 18 3 25 -16 7 -15 8 3 15 11 5 21 9 21 9 1 1 2 -10 2
-24z m-123 -213 c2 -12 1 -24 -3 -26 -4 -2 -8 9 -8 25 -2 33 4 33 11 1z m-480
-72 c-4 -6 -14 -5 -25 2 -24 16 -15 31 11 18 11 -6 17 -15 14 -20z m5532 -1
c-1 -12 -5 -15 -11 -9 -15 15 -16 39 -1 33 8 -2 13 -13 12 -24z m-5522 -29 c3
-6 -1 -7 -9 -4 -18 7 -21 14 -7 14 6 0 13 -4 16 -10z m5442 -323 c0 -8 -6 -14
-14 -14 -9 0 -10 4 -2 14 6 7 12 13 14 13 1 0 2 -6 2 -13z m-3132 -28 c-4 -5
-1 -9 5 -9 6 0 8 -5 4 -12 -4 -7 -3 -8 5 -4 6 4 9 11 6 16 -11 17 15 20 45 5
17 -9 36 -12 43 -8 16 10 29 11 49 1 9 -4 18 -5 21 0 2 4 2 1 1 -5 -2 -7 1
-13 6 -13 6 0 10 6 11 13 0 6 4 3 9 -8 5 -11 9 -14 9 -7 1 6 6 12 12 12 5 0 7
-6 3 -12 -6 -10 -4 -10 8 0 14 11 18 10 27 -5 6 -10 11 -12 11 -6 0 9 7 10 23
4 12 -4 28 -6 35 -4 6 3 12 1 12 -4 0 -6 6 -10 13 -10 43 -3 67 -8 67 -15 0
-4 8 -8 18 -8 10 0 24 -6 31 -12 10 -9 12 -9 7 -1 -3 6 21 1 54 -12 33 -13 60
-21 60 -18 0 3 7 -1 17 -8 9 -8 24 -13 34 -11 9 2 20 -2 23 -7 4 -6 13 -8 21
-4 8 3 15 1 15 -5 0 -6 9 -8 20 -5 11 3 20 1 20 -4 0 -9 9 -10 80 -15 17 -1
30 -5 30 -9 0 -4 8 -8 18 -8 51 -1 73 -4 78 -12 3 -5 10 -6 16 -3 6 4 6 -2 -1
-15 -14 -25 -23 -28 -14 -3 6 15 5 15 -10 3 -9 -7 -14 -18 -10 -24 3 -6 1 -7
-6 -3 -6 4 -8 13 -4 19 4 7 -4 4 -19 -5 -20 -13 -28 -14 -39 -5 -11 10 -11 9
-1 -5 9 -11 10 -18 2 -23 -5 -3 -10 -1 -10 6 0 7 -3 9 -7 6 -3 -4 2 -16 12
-27 17 -19 17 -19 -6 -15 l-24 4 25 -19 25 -20 -30 10 c-16 6 -26 8 -22 4 4
-4 2 -13 -3 -20 -8 -8 -5 -17 7 -30 17 -17 17 -18 -1 -11 -14 6 -17 4 -12 -8
3 -9 2 -13 -4 -10 -6 3 -10 1 -10 -4 0 -6 -5 -11 -11 -11 -5 0 -8 4 -4 9 3 5
1 12 -4 15 -5 4 -11 1 -14 -6 -2 -7 -2 -2 0 10 3 17 0 22 -9 16 -7 -4 -10 -4
-6 1 4 4 3 17 -3 28 -7 12 -7 17 -1 13 6 -4 6 5 -1 24 -7 20 -18 30 -32 30
-16 0 -17 2 -5 9 8 6 17 8 20 6 4 -2 7 2 7 10 0 8 -4 15 -9 15 -4 0 -8 -4 -8
-10 0 -5 -8 -10 -17 -10 -15 0 -16 2 -3 10 13 8 12 10 -2 10 -10 0 -18 -6 -19
-12 0 -7 -7 2 -15 20 -15 35 -19 38 -30 20 -5 -7 -3 -8 6 -3 9 5 11 4 6 -3 -4
-7 -13 -12 -21 -12 -8 0 -17 5 -21 12 -4 7 -3 8 4 4 7 -4 12 -2 12 3 0 14 -17
14 -25 1 -4 -6 -12 -8 -18 -4 -7 3 -3 -2 7 -10 11 -9 15 -16 9 -16 -7 0 -15 5
-18 10 -5 8 -12 7 -23 -2 -12 -10 -14 -10 -8 0 4 6 2 12 -3 12 -6 0 -11 -6
-11 -12 0 -8 -3 -9 -8 -3 -6 9 -37 12 -64 7 -5 -1 -10 -1 -11 1 -2 1 -12 -5
-23 -13 -19 -14 -19 -14 0 7 10 13 23 20 27 17 5 -3 9 0 9 5 0 16 -7 14 -44
-11 -19 -14 -31 -29 -29 -38 4 -13 3 -13 -6 0 -7 11 -5 20 7 35 14 16 14 17 1
7 -9 -6 -19 -10 -22 -7 -4 3 -5 2 -2 -2 5 -7 -41 -33 -60 -33 -7 0 -15 4 -17
9 -1 5 -10 2 -18 -7 -13 -14 -12 -15 3 -9 11 4 16 3 12 -4 -10 -16 -30 -5 -30
17 0 14 -6 18 -24 16 -17 -3 -21 0 -15 10 5 9 2 8 -11 -2 -17 -14 -18 -13 -12
2 3 10 1 20 -5 24 -6 4 -8 3 -5 -3 4 -6 -1 -17 -10 -24 -15 -12 -16 -12 -10 4
7 19 -9 24 -16 5 -3 -8 -6 -6 -6 5 -1 9 -7 17 -13 17 -9 0 -8 4 2 10 8 5 10
10 4 10 -17 0 -25 -12 -15 -24 6 -7 1 -11 -15 -12 -13 -1 -24 2 -24 6 0 4 -7
11 -16 14 -11 4 -15 2 -11 -7 4 -10 -3 -13 -21 -11 -35 3 -34 2 -27 14 5 8 11
7 21 -1 11 -9 14 -8 14 6 0 10 -3 15 -7 12 -3 -4 -14 0 -24 9 -13 12 -22 13
-38 5 -25 -14 -42 -14 -18 0 9 6 15 14 12 20 -4 5 -2 9 3 9 5 0 9 7 9 15 0 8
-5 11 -10 8 -6 -4 -8 0 -4 9 3 9 0 21 -6 27 -9 9 -7 11 8 6 l20 -6 -20 13
c-24 15 -29 35 -10 35 8 0 11 -7 7 -16 -7 -21 2 -12 17 16 10 20 9 21 -10 18
-12 -3 -18 -1 -15 3 4 4 13 7 19 7 7 1 11 7 9 14 -1 7 2 10 8 6 6 -3 8 -11 5
-16z m3005 1 c0 -5 -5 -10 -11 -10 -5 0 -7 5 -4 10 3 6 8 10 11 10 2 0 4 -4 4
-10z m-3449 -39 c-9 -6 -10 -14 -5 -22 12 -19 12 -53 -1 -61 -6 -5 -5 -8 3 -8
7 0 10 -4 7 -10 -11 -18 -24 -11 -19 10 2 11 6 29 8 40 3 12 1 18 -5 15 -5 -4
-7 -10 -4 -15 3 -5 1 -11 -5 -15 -22 -14 2 -67 28 -59 14 5 14 3 -2 -6 -13 -9
-15 -15 -7 -20 9 -5 8 -10 -2 -19 -12 -9 -15 -8 -13 6 0 12 -7 19 -21 21 -13
2 -23 -1 -23 -7 0 -6 7 -8 15 -5 10 4 15 0 15 -12 0 -16 -2 -17 -10 -4 -9 13
-10 13 -10 0 -1 -9 -6 -5 -14 9 -8 14 -12 29 -11 35 10 39 19 56 27 56 5 0 6
5 2 12 -4 7 -3 8 4 4 8 -4 12 0 12 11 0 22 29 67 38 58 4 -3 0 -10 -7 -14z
m26 -16 c0 -8 -4 -12 -9 -9 -5 3 -6 10 -3 15 9 13 12 11 12 -6z m-1567 -35 c0
-5 -2 -10 -4 -10 -3 0 -8 5 -11 10 -3 6 -1 10 4 10 6 0 11 -4 11 -10z m1946
-27 c1 -13 -3 -23 -9 -23 -6 0 -7 3 -4 6 3 4 2 14 -3 24 -6 11 -5 17 3 17 7 0
13 -11 13 -24z m1 -39 c-3 -3 -12 -4 -19 -1 -8 3 -5 6 6 6 11 1 17 -2 13 -5z
m48 -24 c3 -5 -3 -10 -15 -10 -13 0 -19 -4 -14 -12 4 -7 3 -8 -5 -4 -9 6 -9
11 0 22 14 16 25 18 34 4z m1026 -53 c-10 -9 -11 -8 -5 6 3 10 9 15 12 12 3
-3 0 -11 -7 -18z m-788 -22 c-3 -9 -8 -14 -10 -11 -3 3 -2 9 2 15 9 16 15 13
8 -4z m123 -7 c4 -7 4 -10 -1 -6 -4 4 -14 3 -22 -3 -13 -11 -19 2 -6 14 10 11
21 8 29 -5z m527 -5 c-7 -2 -11 -10 -9 -16 1 -7 1 -9 -1 -4 -3 4 -10 4 -16 0
-7 -3 -3 3 7 15 11 12 22 19 25 16 3 -4 1 -9 -6 -11z m-574 -20 c0 -12 -2 -13
-6 -5 -4 10 -8 10 -21 0 -15 -12 -16 -11 -3 5 7 9 17 17 22 17 5 0 9 -8 8 -17z
m416 -23 c3 -5 1 -10 -4 -10 -6 0 -11 5 -11 10 0 6 2 10 4 10 3 0 8 -4 11 -10z
m108 -44 c4 -10 1 -13 -8 -9 -8 3 -12 9 -9 14 7 12 11 11 17 -5z m-18 -76 c-3
-5 -12 -10 -18 -10 -7 0 -6 4 3 10 19 12 23 12 15 0z m-1304 -99 c0 10 2 11 6
1 2 -6 9 -10 13 -7 10 6 34 -34 26 -43 -3 -3 -6 0 -6 7 0 7 -5 9 -10 6 -6 -3
-13 0 -16 9 -3 8 -12 12 -20 9 -8 -3 -14 0 -14 7 0 6 -5 8 -12 4 -7 -4 -8 -3
-4 5 6 9 11 9 22 0 11 -9 14 -8 15 2z m34 -63 c17 -16 26 -28 20 -27 -5 1 -17
1 -25 0 -13 -1 -13 -2 0 -11 12 -7 12 -12 2 -22 -15 -15 -16 -32 0 -22 7 5 8
3 4 -5 -6 -9 -13 -8 -27 5 -10 9 -19 13 -19 9 0 -5 -9 1 -20 13 -23 24 -36 29
-23 10 4 -7 8 -17 8 -23 1 -5 7 -9 14 -7 8 1 10 -2 5 -10 -6 -11 -5 -11 8 0
13 10 17 10 21 -2 4 -11 1 -13 -10 -9 -11 4 -14 2 -9 -5 5 -8 2 -10 -8 -6 -9
3 -16 10 -16 16 0 5 -4 7 -8 4 -5 -3 -9 0 -10 7 -5 51 -9 74 -16 86 -6 9 -5
12 2 7 6 -3 13 3 17 14 9 27 50 17 90 -22z m-1780 4 c-6 -7 -34 11 -29 19 3 5
11 3 19 -4 7 -6 12 -13 10 -15z m3395 -6 c0 -2 -7 -6 -15 -10 -8 -3 -15 -1
-15 4 0 6 7 10 15 10 8 0 15 -2 15 -4z m-31 -32 c1 5 9 2 18 -5 15 -12 16 -12
10 4 -9 24 0 21 14 -4 8 -15 8 -19 0 -15 -6 4 -11 1 -11 -6 0 -10 -2 -10 -9 1
-6 9 -11 10 -15 2 -4 -6 -2 -11 4 -11 6 0 8 -5 4 -11 -4 -7 2 -6 17 2 22 11
23 11 10 -4 -11 -14 -11 -17 0 -17 11 0 11 -2 -1 -10 -8 -5 -11 -10 -5 -10 5
0 4 -5 -3 -12 -15 -15 -15 -28 -1 -28 5 0 7 4 4 10 -4 6 1 7 11 3 11 -4 13 -8
6 -11 -7 -2 -12 -8 -12 -14 0 -6 8 -7 18 -4 16 6 16 5 0 -8 -19 -14 -25 -32
-8 -21 6 3 10 -1 10 -10 0 -9 -4 -13 -10 -10 -16 10 -11 -1 7 -16 9 -8 14 -9
10 -2 -8 13 18 12 30 -2 4 -4 2 -5 -4 -1 -14 8 -19 -25 -6 -38 7 -6 13 -29 15
-53 1 -7 4 -13 8 -13 4 0 6 -18 6 -40 -1 -22 2 -40 6 -40 4 0 5 -9 3 -20 -2
-11 -1 -20 3 -20 4 0 9 -12 10 -27 1 -27 1 -27 -13 -9 -17 23 -20 14 -5 -14 7
-13 7 -21 0 -25 -6 -3 -13 2 -17 12 -3 10 -13 22 -20 26 -7 5 -10 14 -6 20 3
7 -2 5 -13 -3 -39 -30 -61 -39 -61 -24 0 7 3 11 7 9 3 -2 12 1 20 6 11 6 5 8
-18 4 -25 -4 -32 -2 -26 6 4 7 -3 5 -17 -4 -28 -20 -43 -22 -33 -4 4 6 4 9 -1
5 -4 -4 -14 0 -22 10 -13 15 -13 14 -3 -7 9 -18 9 -26 -1 -35 -9 -8 -10 -8 -5
2 9 14 -10 17 -19 2 -4 -6 -11 -8 -16 -4 -5 3 -17 0 -25 -7 -19 -16 -47 -21
-38 -8 3 5 11 6 17 3 7 -4 9 -3 4 1 -11 13 -49 17 -42 5 3 -5 0 -7 -9 -4 -23
9 -41 60 -25 70 6 4 6 10 0 18 -11 14 -11 57 1 50 4 -3 4 -12 1 -22 -6 -15 -5
-15 10 -3 9 7 14 18 10 24 -3 6 -1 7 5 3 6 -3 16 3 22 14 10 18 14 19 27 8 14
-11 15 -11 5 8 -9 16 -8 21 4 22 7 1 21 3 29 4 8 1 12 5 9 10 -3 5 -10 6 -15
3 -16 -11 -9 7 9 21 15 12 15 13 -6 9 -20 -3 -22 -2 -12 10 9 10 17 12 30 5
14 -7 18 -6 16 5 -1 8 -6 18 -11 22 -4 4 -5 2 -1 -4 5 -9 2 -11 -10 -6 -15 5
-15 7 0 15 9 5 13 14 10 20 -4 7 -2 8 5 4 6 -4 8 -13 5 -19 -4 -7 -3 -8 2 -4
5 5 10 13 10 18 1 5 2 14 3 20 0 5 7 7 14 3 10 -6 10 -4 0 7 -13 13 -19 38 -7
26 4 -3 15 -2 25 3 19 11 18 41 -3 69 -12 15 -11 15 7 0 33 -27 51 -33 28 -10
-26 25 -29 36 -9 28 8 -3 17 1 20 9 9 24 7 34 -6 30 -7 -1 -10 -1 -5 1 4 3 7
12 8 21 0 14 2 13 9 -3 5 -11 9 -16 9 -11z m-697 -6 c-17 -17 -15 -33 3 -18
10 9 15 9 15 1 0 -6 -5 -11 -11 -11 -5 0 -7 -5 -4 -10 4 -6 11 -8 16 -5 5 3 6
-1 3 -10 -5 -11 -2 -14 12 -9 17 6 17 5 4 -7 -9 -8 -23 -23 -30 -34 -14 -18
-13 -19 1 -8 21 17 33 5 16 -16 -11 -14 -10 -14 6 -2 13 11 15 17 6 28 -7 7
-9 16 -5 20 3 3 6 1 6 -6 0 -7 4 -10 9 -6 10 6 5 -41 -6 -58 -4 -6 1 -8 11 -4
10 4 15 3 11 -3 -3 -6 -1 -10 4 -10 6 0 11 -8 11 -17 0 -16 -2 -16 -11 -3 -9
13 -10 13 -6 -1 3 -9 0 -23 -6 -30 -10 -11 -9 -11 6 0 14 11 17 11 17 0 0 -11
3 -11 11 1 9 13 10 13 6 -1 -3 -9 0 -22 6 -29 10 -10 8 -10 -10 -1 -27 14 -44
14 -21 0 11 -6 15 -16 11 -27 -6 -15 -5 -15 10 -3 10 8 20 11 24 7 3 -3 2 -6
-4 -6 -6 0 -9 -9 -6 -19 3 -11 10 -18 16 -17 7 2 8 1 4 -2 -5 -2 4 -13 20 -23
15 -10 22 -19 16 -19 -7 0 -13 -5 -13 -11 0 -5 5 -7 10 -4 15 9 12 -4 -4 -21
-13 -12 -14 -10 -13 18 1 17 -3 33 -10 35 -8 3 -11 -3 -8 -16 2 -11 -1 -23 -6
-27 -5 -3 -8 0 -7 8 2 9 -6 12 -26 11 -27 -2 -28 -1 -10 11 10 8 23 12 28 9 5
-4 6 0 1 7 -6 9 -4 11 5 5 9 -5 11 -4 6 4 -4 6 -12 9 -17 5 -5 -3 -18 0 -27 8
-15 12 -16 11 -3 -5 19 -25 11 -29 -61 -30 -35 -1 -65 -5 -68 -9 -3 -4 -12 3
-19 15 -13 20 -13 21 2 8 10 -7 17 -9 17 -3 0 13 -21 21 -38 14 -10 -3 -10 -7
0 -21 11 -14 11 -14 -3 -4 -9 7 -18 11 -21 8 -2 -3 -5 2 -5 10 0 8 4 12 8 10
3 -3 12 2 19 10 7 8 9 15 4 15 -5 0 -2 5 6 11 13 9 13 10 0 6 -8 -2 -14 -10
-12 -16 1 -6 -2 -11 -7 -11 -5 0 -8 13 -7 29 0 22 4 27 13 19 7 -5 18 -8 25
-5 9 4 8 6 -3 6 -12 1 -16 10 -16 35 1 19 5 32 9 30 5 -3 6 -10 3 -15 -4 -5
-1 -17 5 -26 11 -17 11 -17 6 1 -4 10 -1 26 6 34 9 10 9 13 1 9 -12 -7 -13 38
-1 58 3 6 4 18 3 28 -2 9 1 18 6 18 5 1 13 2 18 3 5 0 13 5 18 9 4 5 4 7 -2 5
-5 -1 -10 2 -10 7 0 6 10 10 23 9 17 -1 20 2 11 12 -14 17 -62 -3 -55 -23 3
-8 1 -11 -4 -8 -10 6 -13 -3 -13 -37 0 -10 -3 -15 -8 -13 -4 3 -6 -3 -4 -14 3
-14 -1 -18 -12 -14 -12 5 -12 7 -1 14 7 5 9 9 4 9 -5 0 -2 8 5 17 12 15 12 16
-6 10 -20 -7 -20 -7 0 8 17 14 18 17 5 26 -13 9 -12 10 2 5 11 -3 19 2 23 15
4 11 11 16 17 13 8 -5 9 -1 4 11 -5 15 -4 16 9 5 12 -10 15 -10 15 3 0 8 6 18
13 20 20 9 22 8 9 -5z m-2789 -34 c-4 -12 -8 -13 -14 -3 -9 15 -2 32 11 24 5
-3 6 -13 3 -21z m-43 -54 c-12 -8 -12 -10 -1 -10 8 0 12 -3 8 -6 -9 -9 -28 6
-22 17 4 5 12 9 18 9 7 0 6 -4 -3 -10z m3476 -13 c1 -12 -5 -17 -19 -17 -21 1
-21 1 -3 11 15 9 16 13 5 21 -12 8 -12 9 0 6 8 -2 15 -12 17 -21z m-46 -57 c0
-5 -5 -10 -11 -10 -5 0 -7 5 -4 10 3 6 8 10 11 10 2 0 4 -4 4 -10z m-1954 -87
c-3 -19 -19 -21 -21 -2 -2 9 3 16 10 16 7 0 12 -6 11 -14z m579 -21 c-3 -3
-11 0 -18 7 -9 10 -8 11 6 5 10 -3 15 -9 12 -12z m-2028 -58 c-9 -9 -28 6 -21
18 4 6 10 6 17 -1 6 -6 8 -13 4 -17z m42 2 c11 -14 6 -15 -27 -7 -4 1 8 21 12
21 2 0 9 -6 15 -14z m941 -31 c-13 -15 -35 -11 -24 6 3 5 10 7 15 4 5 -4 9 -1
9 6 0 7 3 9 6 6 4 -4 1 -13 -6 -22z m1151 8 c12 -16 12 -17 -2 -6 -9 7 -19 10
-22 6 -4 -3 -7 -1 -7 5 0 17 16 15 31 -5z m-1971 -13 c0 -5 -2 -10 -4 -10 -3
0 -8 5 -11 10 -3 6 -1 10 4 10 6 0 11 -4 11 -10z m697 -22 c-3 -8 -6 -5 -6 6
-1 11 2 17 5 13 3 -3 4 -12 1 -19z m2136 7 c4 -8 3 -16 -1 -19 -4 -3 -9 4 -9
15 -2 23 3 25 10 4z m-489 -20 c-11 -8 -14 -15 -6 -15 6 0 12 -5 12 -12 0 -6
-9 -3 -20 7 -11 10 -20 23 -20 29 0 6 4 6 9 -2 6 -10 10 -10 21 3 7 8 15 13
18 10 3 -3 -3 -12 -14 -20z m-2109 -3 c-3 -3 -11 0 -18 7 -9 10 -8 11 6 5 10
-3 15 -9 12 -12z m2132 -24 c-3 -8 -6 -5 -6 6 -1 11 2 17 5 13 3 -3 4 -12 1
-19z m0 -24 c-3 -3 -12 -4 -19 -1 -8 3 -5 6 6 6 11 1 17 -2 13 -5z m959 -26
c4 -7 3 -8 -4 -4 -7 4 -12 2 -12 -5 0 -7 -3 -10 -6 -6 -6 5 3 27 11 27 2 0 7
-5 11 -12z m93 -1 c8 -10 7 -14 -4 -14 -8 0 -15 6 -15 14 0 7 2 13 4 13 2 0 9
-6 15 -13z m-1055 -45 c3 -5 -1 -9 -9 -9 -8 0 -12 4 -9 9 3 4 7 8 9 8 2 0 6
-4 9 -8z m766 4 c0 -2 -8 -10 -17 -17 -16 -13 -17 -12 -4 4 13 16 21 21 21 13z
m-480 -273 c0 -13 -3 -13 -15 -3 -8 7 -12 16 -9 21 8 13 24 1 24 -18z m898
-70 c-7 -9 -6 -13 3 -13 9 -1 8 -4 -4 -11 -10 -6 -21 -8 -24 -5 -4 3 -1 6 6 6
9 0 6 6 -6 18 -10 9 -14 14 -9 10 6 -5 14 -8 18 -8 4 0 7 3 7 8 -1 4 -1 16 1
27 l1 20 8 -20 c5 -11 4 -25 -1 -32z m-988 -43 c0 -5 -5 -10 -11 -10 -5 0 -7
5 -4 10 3 6 8 10 11 10 2 0 4 -4 4 -10z m1005 0 c-3 -5 -11 -10 -16 -10 -6 0
-7 5 -4 10 3 6 11 10 16 10 6 0 7 -4 4 -10z m-165 -54 c0 -2 -7 -6 -15 -10 -8
-3 -15 -1 -15 4 0 6 7 10 15 10 8 0 15 -2 15 -4z"/>
<path d="M734 3738 c-4 -7 -4 -10 1 -6 4 4 15 2 24 -5 14 -11 14 -10 2 6 -16
20 -18 21 -27 5z"/>
<path d="M700 3650 c-8 -5 -10 -10 -5 -10 6 0 17 5 25 10 8 5 11 10 5 10 -5 0
-17 -5 -25 -10z"/>
<path d="M710 3579 c0 -5 5 -7 10 -4 6 3 10 8 10 11 0 2 -4 4 -10 4 -5 0 -10
-5 -10 -11z"/>
<path d="M705 3520 c-3 -6 1 -7 9 -4 18 7 21 14 7 14 -6 0 -13 -4 -16 -10z"/>
<path d="M2558 3123 c10 -4 10 -8 0 -21 -11 -15 -11 -15 3 -4 9 7 25 10 35 6
11 -3 9 1 -6 10 -14 8 -29 15 -35 15 -5 0 -4 -3 3 -6z"/>
<path d="M2628 3102 c-10 -14 -10 -15 2 -4 12 10 17 8 28 -10 l13 -23 -7 25
c-6 23 -6 24 12 10 15 -11 16 -11 7 0 -18 20 -40 21 -55 2z"/>
<path d="M2616 2935 c4 -8 8 -15 10 -15 2 0 4 7 4 15 0 8 -4 15 -10 15 -5 0
-7 -7 -4 -15z"/>
<path d="M3033 2926 c0 -7 6 -13 14 -13 7 0 13 4 13 8 0 4 -6 9 -13 12 -8 3
-14 0 -14 -7z"/>
<path d="M3076 2927 c3 -10 9 -15 12 -12 3 3 0 11 -7 18 -10 9 -11 8 -5 -6z"/>
<path d="M3286 2838 c3 -5 10 -6 15 -3 13 9 11 12 -6 12 -8 0 -12 -4 -9 -9z"/>
<path d="M3310 2806 c0 -2 7 -7 16 -10 8 -3 12 -2 9 4 -6 10 -25 14 -25 6z"/>
<path d="M3295 2780 c-6 -10 1 -14 19 -11 5 1 6 -5 3 -13 -4 -9 -3 -17 1 -20
4 -3 8 4 9 14 2 23 -22 46 -32 30z"/>
<path d="M2021 2987 c-13 -21 -12 -21 5 -5 10 10 16 20 13 22 -3 3 -11 -5 -18
-17z"/>
<path d="M2006 2562 c-2 -4 -1 -14 4 -22 7 -11 9 -9 7 8 -1 24 -3 26 -11 14z"/>
<path d="M2035 2542 c3 -3 -1 -12 -7 -21 -8 -10 -4 -9 10 3 26 23 26 23 7 23
-8 0 -13 -3 -10 -5z"/>
<path d="M2070 2530 c0 -5 5 -10 11 -10 5 0 7 5 4 10 -3 6 -8 10 -11 10 -2 0
-4 -4 -4 -10z"/>
<path d="M2057 2485 c3 -8 9 -12 14 -9 12 7 11 11 -5 17 -10 4 -13 1 -9 -8z"/>
<path d="M3660 2453 c0 -6 5 -15 10 -18 6 -4 8 -10 6 -14 -3 -4 1 -8 8 -8 7 0
13 6 13 13 0 7 -4 11 -8 8 -4 -2 -12 4 -18 13 -6 10 -11 13 -11 6z"/>
<path d="M3670 2376 c0 -2 8 -10 18 -17 15 -13 16 -12 3 4 -13 16 -21 21 -21
13z"/>
<path d="M3458 2135 c-30 -35 -34 -45 -17 -45 5 0 8 3 6 8 -6 8 25 40 32 32 2
-3 6 5 7 18 5 28 5 28 -28 -13z"/>
<path d="M3424 2069 c-4 -8 -3 -10 4 -5 7 4 12 3 12 -3 0 -5 -5 -11 -11 -13
-7 -2 -6 -8 3 -15 11 -10 14 -8 13 12 0 29 -10 41 -21 24z"/>
<path d="M3460 2038 c0 -4 7 -8 15 -8 8 0 15 4 15 8 0 5 -7 9 -15 9 -8 0 -15
-4 -15 -9z"/>
<path d="M3550 2039 c0 -5 -5 -7 -12 -3 -7 4 -8 3 -4 -5 6 -9 11 -9 22 0 17
14 18 19 4 19 -5 0 -10 -5 -10 -11z"/>
<path d="M3500 2019 c0 -5 5 -7 10 -4 6 3 10 8 10 11 0 2 -4 4 -10 4 -5 0 -10
-5 -10 -11z"/>
<path d="M2919 2353 c-13 -16 -12 -17 4 -4 16 13 21 21 13 21 -2 0 -10 -8 -17
-17z"/>
<path d="M2947 2164 c6 -15 23 -19 23 -5 0 5 -7 11 -14 14 -10 4 -13 1 -9 -9z"/>
<path d="M2992 2166 c7 -8 15 -12 17 -11 5 6 -10 25 -20 25 -5 0 -4 -6 3 -14z"/>
<path d="M493 4183 c4 -3 1 -13 -6 -22 -11 -14 -10 -14 6 -2 20 15 22 31 5 31
-6 0 -8 -3 -5 -7z"/>
<path d="M310 4021 c0 -6 4 -12 8 -15 5 -3 9 1 9 9 0 8 -4 15 -9 15 -4 0 -8
-4 -8 -9z"/>
<path d="M285 4000 c-3 -5 -1 -10 4 -10 6 0 11 5 11 10 0 6 -2 10 -4 10 -3 0
-8 -4 -11 -10z"/>
<path d="M255 3930 c-6 -18 -17 -25 -38 -21 -5 1 -6 -3 -2 -8 3 -6 12 -8 20
-5 17 7 49 54 36 54 -5 0 -13 -9 -16 -20z"/>
<path d="M5635 3901 c-9 -15 15 -25 28 -12 9 9 7 10 -7 5 -13 -5 -17 -4 -12 4
4 7 5 12 2 12 -3 0 -7 -4 -11 -9z"/>
<path d="M197 3793 c-11 -11 -8 -21 9 -27 13 -5 14 -4 6 7 -7 8 -9 17 -5 20 3
4 4 7 1 7 -2 0 -8 -3 -11 -7z"/>
<path d="M5727 3729 c7 -7 15 -10 18 -7 3 3 -2 9 -12 12 -14 6 -15 5 -6 -5z"/>
<path d="M5750 3699 c0 -5 5 -7 10 -4 6 3 10 8 10 11 0 2 -4 4 -10 4 -5 0 -10
-5 -10 -11z"/>
<path d="M173 3655 c0 -19 4 -35 7 -35 8 0 6 58 -2 65 -3 3 -5 -11 -5 -30z"/>
<path d="M5739 3633 c-13 -17 -13 -17 6 -3 11 8 22 16 24 17 2 2 0 3 -6 3 -6
0 -17 -8 -24 -17z"/>
<path d="M5750 3610 c0 -5 5 -10 11 -10 5 0 7 5 4 10 -3 6 -8 10 -11 10 -2 0
-4 -4 -4 -10z"/>
<path d="M173 3413 c0 -10 4 -10 16 -1 9 7 18 13 20 15 2 1 -5 1 -16 0 -11 0
-20 -7 -20 -14z"/>
<path d="M195 3400 c-3 -5 -1 -10 4 -10 6 0 11 5 11 10 0 6 -2 10 -4 10 -3 0
-8 -4 -11 -10z"/>
<path d="M217 3289 c4 -13 8 -18 11 -10 2 7 -1 18 -6 23 -8 8 -9 4 -5 -13z"/>
<path d="M273 3194 c0 -10 4 -11 14 -3 12 11 17 5 14 -14 -1 -5 4 -5 10 -2 8
5 8 10 0 18 -16 16 -38 17 -38 1z"/>
<path d="M5686 3167 c3 -10 9 -15 12 -12 3 3 0 11 -7 18 -10 9 -11 8 -5 -6z"/>
<path d="M5548 3103 c7 -3 16 -2 19 1 4 3 -2 6 -13 5 -11 0 -14 -3 -6 -6z"/>
<path d="M480 3050 c0 -5 -8 -7 -17 -3 -10 3 -15 3 -12 -1 4 -4 16 -8 27 -11
15 -2 19 0 15 11 -6 16 -13 19 -13 4z"/>
<path d="M564 3005 c8 -8 18 -15 22 -15 3 0 1 7 -6 15 -7 8 -17 15 -22 15 -5
0 -3 -7 6 -15z"/>
<path d="M533 2995 c0 -8 4 -12 9 -9 5 3 6 10 3 15 -9 13 -12 11 -12 -6z"/>
<path d="M638 2973 c7 -3 16 -2 19 1 4 3 -2 6 -13 5 -11 0 -14 -3 -6 -6z"/>
<path d="M346 2575 c-9 -26 -7 -32 5 -12 6 10 9 21 6 23 -2 3 -7 -2 -11 -11z"/>
<path d="M367 2567 c-9 -23 8 -30 24 -10 8 9 9 14 2 10 -6 -4 -13 -2 -15 5 -3
8 -7 6 -11 -5z"/>
<path d="M526 2542 c-2 -4 -1 -14 4 -21 6 -11 12 -11 31 3 19 13 20 16 6 16
-9 0 -17 -5 -17 -11 0 -5 -5 -7 -10 -4 -6 4 -8 11 -5 16 4 5 4 9 1 9 -3 0 -7
-4 -10 -8z"/>
<path d="M596 2534 c-8 -20 -8 -24 2 -24 4 0 8 9 9 20 2 24 -3 26 -11 4z"/>
<path d="M700 2523 c0 -16 17 -26 25 -13 4 6 11 8 16 5 5 -4 9 -1 9 4 0 14
-17 14 -26 0 -4 -8 -9 -7 -15 2 -6 10 -9 10 -9 2z"/>
<path d="M93 2378 c-2 -16 1 -18 10 -9 7 7 8 14 1 21 -6 6 -10 2 -11 -12z"/>
<path d="M1570 2360 c0 -5 5 -10 11 -10 5 0 7 5 4 10 -3 6 -8 10 -11 10 -2 0
-4 -4 -4 -10z"/>
<path d="M35 2350 c-3 -6 1 -7 9 -4 18 7 21 14 7 14 -6 0 -13 -4 -16 -10z"/>
<path d="M1573 2320 c-1 -11 2 -20 7 -20 4 0 7 7 6 15 -3 23 -12 26 -13 5z"/>
<path d="M43 2315 c0 -8 4 -12 9 -9 5 3 6 10 3 15 -9 13 -12 11 -12 -6z"/>
<path d="M25 2264 c0 -18 3 -30 7 -28 3 2 9 0 13 -6 3 -5 1 -10 -5 -10 -6 0
-4 -11 6 -25 12 -19 20 -23 29 -15 9 8 15 7 18 -2 4 -10 6 -10 6 0 1 8 -15 27
-34 44 -27 24 -32 35 -25 48 7 13 6 19 -3 23 -8 3 -12 -7 -12 -29z m49 -76
c-4 -6 -10 -5 -15 3 -14 22 -10 33 6 19 8 -7 12 -17 9 -22z"/>
<path d="M2155 2209 c-4 -6 -5 -12 -2 -15 2 -3 7 2 10 11 7 17 1 20 -8 4z"/>
<path d="M110 2176 c0 -8 4 -17 9 -20 5 -4 7 3 4 14 -6 23 -13 26 -13 6z"/>
<path d="M1265 2180 c-3 -6 1 -7 9 -4 18 7 21 14 7 14 -6 0 -13 -4 -16 -10z"/>
<path d="M1610 2166 c0 -2 7 -7 16 -10 8 -3 12 -2 9 4 -6 10 -25 14 -25 6z"/>
<path d="M370 2126 c0 -9 5 -16 10 -16 6 0 10 4 10 9 0 6 -4 13 -10 16 -5 3
-10 -1 -10 -9z"/>
<path d="M256 2118 c3 -5 10 -6 15 -3 13 9 11 12 -6 12 -8 0 -12 -4 -9 -9z"/>
<path d="M416 2122 c-3 -5 1 -15 8 -21 11 -10 14 -9 12 3 -3 21 -13 29 -20 18z"/>
<path d="M2260 2125 c0 -2 6 -8 13 -14 10 -8 14 -7 14 2 0 8 -6 14 -14 14 -7
0 -13 -1 -13 -2z"/>
<path d="M1934 2099 c-2 -4 0 -10 5 -13 5 -4 12 -2 16 4 4 6 10 8 15 5 5 -3
11 -2 14 3 2 4 -7 8 -20 8 -14 0 -27 -3 -30 -7z"/>
<path d="M2470 2101 c0 -6 4 -13 10 -16 6 -3 7 1 4 9 -7 18 -14 21 -14 7z"/>
<path d="M2555 2099 c-10 -15 3 -25 16 -12 7 7 7 13 1 17 -6 3 -14 1 -17 -5z"/>
<path d="M2590 2103 c0 -2 10 -14 21 -26 21 -21 21 -21 11 -1 -6 12 -9 23 -7
26 3 3 -2 5 -10 5 -8 0 -15 -2 -15 -4z"/>
<path d="M957 2093 c-4 -3 -7 -11 -7 -17 0 -6 5 -5 12 2 6 6 9 14 7 17 -3 3
-9 2 -12 -2z"/>
<path d="M2650 1860 c0 -5 5 -10 11 -10 5 0 7 5 4 10 -3 6 -8 10 -11 10 -2 0
-4 -4 -4 -10z"/>
<path d="M3123 1743 c4 -3 1 -13 -6 -22 -11 -14 -10 -14 5 -2 16 12 16 31 1
31 -4 0 -3 -3 0 -7z"/>
<path d="M3001 1724 c0 -11 3 -14 6 -6 3 7 2 16 -1 19 -3 4 -6 -2 -5 -13z"/>
<path d="M2936 1692 c-3 -5 1 -9 9 -9 8 0 12 4 9 9 -3 4 -7 8 -9 8 -2 0 -6 -4
-9 -8z"/>
<path d="M2915 1640 c-3 -5 -1 -10 4 -10 6 0 11 5 11 10 0 6 -2 10 -4 10 -3 0
-8 -4 -11 -10z"/>
<path d="M3115 1630 c-3 -6 1 -7 9 -4 18 7 21 14 7 14 -6 0 -13 -4 -16 -10z"/>
<path d="M2690 1571 c0 -10 30 -24 37 -17 3 2 -5 9 -16 16 -12 6 -21 7 -21 1z"/>
<path d="M3355 1559 c-9 -14 -2 -20 14 -10 8 6 9 11 3 15 -6 3 -14 1 -17 -5z"/>
<path d="M2673 1545 c0 -7 6 -11 14 -8 7 3 13 6 13 8 0 2 -6 5 -13 8 -8 3 -14
-1 -14 -8z"/>
<path d="M3320 1550 c-8 -5 -12 -11 -9 -14 2 -3 11 -1 19 4 8 5 12 11 9 14 -2
3 -11 1 -19 -4z"/>
<path d="M2900 1540 c-9 -6 -10 -10 -3 -10 6 0 15 5 18 10 8 12 4 12 -15 0z"/>
<path d="M3475 1540 c-4 -6 -11 -8 -16 -5 -16 10 -10 -2 9 -16 9 -7 14 -9 10
-5 -4 5 -3 15 3 23 6 7 9 13 6 13 -3 0 -9 -5 -12 -10z"/>
<path d="M2846 1527 c-16 -12 -16 -13 2 -13 10 0 19 6 19 13 0 7 -1 13 -2 13
-1 0 -9 -6 -19 -13z"/>
<path d="M3241 1526 c-9 -11 -9 -16 1 -22 7 -4 10 -4 6 1 -4 4 -3 14 3 22 6 7
9 13 6 13 -2 0 -10 -6 -16 -14z"/>
<path d="M3276 1532 c-3 -5 1 -9 9 -9 8 0 12 4 9 9 -3 4 -7 8 -9 8 -2 0 -6 -4
-9 -8z"/>
<path d="M3643 1525 c0 -8 4 -12 9 -9 5 3 6 10 3 15 -9 13 -12 11 -12 -6z"/>
<path d="M3840 1340 c-9 -6 -10 -10 -3 -10 6 0 15 5 18 10 8 12 4 12 -15 0z"/>
</g>
</svg>
